<?xml version="1.0" standalone="no"?>
<!DOCTYPE svg PUBLIC "-//W3C//DTD SVG 20010904//EN"
 "http://www.w3.org/TR/2001/REC-SVG-20010904/DTD/svg10.dtd">
<svg version="1.0" xmlns="http://www.w3.org/2000/svg"
 width="1046.000000pt" height="1045.000000pt" viewBox="0 0 1046.000000 1045.000000"
 preserveAspectRatio="xMidYMid meet">

<g transform="translate(0.000000,1045.000000) scale(0.100000,-0.100000)"
fill="#000000" stroke="none">
<path d="M2580 7405 l0 -425 1085 0 1085 0 0 -715 0 -715 -980 0 -980 0 0
-419 0 -418 38 -7 c20 -3 461 -6 980 -6 l942 0 0 -730 0 -730 -1245 0 -1245 0
0 -425 0 -425 2970 0 2970 0 0 425 0 425 -1255 0 -1255 0 0 730 0 730 980 0
980 0 0 425 0 425 -980 0 -980 0 0 715 0 715 1090 0 1090 0 0 425 0 425 -2645
0 -2645 0 0 -425z"/>
</g>
</svg>
