<?xml version="1.0" standalone="no"?>
<!DOCTYPE svg PUBLIC "-//W3C//DTD SVG 20010904//EN"
 "http://www.w3.org/TR/2001/REC-SVG-20010904/DTD/svg10.dtd">
<svg version="1.0" xmlns="http://www.w3.org/2000/svg"
 width="384.000000pt" height="384.000000pt" viewBox="0 0 384.000000 384.000000"
 preserveAspectRatio="xMidYMid meet">

<g transform="translate(0.000000,384.000000) scale(0.100000,-0.100000)"
fill="#000000" stroke="none">
<path d="M630 3243 c-67 -13 -73 -53 -34 -213 14 -58 45 -190 69 -295 24 -104
76 -327 115 -495 39 -168 89 -381 110 -475 l40 -170 0 -476 0 -476 26 -24 c22
-21 35 -24 100 -24 63 0 77 3 96 23 l23 23 5 502 6 502 57 240 c32 132 80 335
107 450 27 116 79 338 116 495 94 403 93 411 -38 414 -133 2 -143 -8 -172
-159 -10 -49 -39 -193 -66 -320 -27 -126 -63 -304 -79 -395 -31 -175 -47 -249
-53 -255 -2 -2 -14 55 -27 128 -12 73 -49 256 -81 407 -32 151 -68 325 -80
385 -26 129 -45 182 -71 196 -22 11 -133 20 -169 12z"/>
<path d="M1648 3243 c-66 -11 -70 -54 -33 -348 14 -110 48 -384 75 -610 27
-225 74 -617 104 -870 73 -606 93 -750 106 -776 18 -32 71 -49 155 -49 85 0
137 17 155 51 7 12 26 142 41 288 16 146 43 381 59 521 16 140 43 386 60 545
17 160 34 306 38 325 8 34 9 33 20 -30 6 -36 32 -240 57 -455 60 -516 111
-957 126 -1079 10 -84 16 -103 39 -129 26 -29 32 -31 116 -35 104 -5 155 11
177 55 15 29 39 187 82 553 31 261 108 892 177 1440 57 455 63 559 35 587 -27
28 -159 25 -188 -4 -23 -23 -30 -77 -104 -778 -72 -683 -139 -1284 -143 -1281
-4 5 -38 283 -87 721 -20 171 -51 441 -70 600 -19 160 -43 376 -55 480 -23
213 -32 250 -63 267 -28 16 -165 16 -193 0 -12 -6 -26 -24 -32 -39 -6 -15 -59
-458 -117 -983 -59 -525 -110 -973 -114 -995 -7 -36 -8 -37 -14 -15 -4 14 -14
99 -22 190 -9 91 -32 305 -50 475 -19 171 -53 486 -75 700 -63 607 -67 636
-88 657 -19 19 -118 31 -174 21z"/>
</g>
</svg>
